<?xml version="1.0" encoding="UTF-8"?><svg id="Layer_1" xmlns="http://www.w3.org/2000/svg" viewBox="0 0 227.47 138.04"><defs><style>.cls-1{fill:#c69c6d;}.cls-2{fill:#603813;}.cls-3{fill:#a67c52;}.cls-4{fill:#42210b;}.cls-5{fill:#8c6239;}.cls-6{fill:#754c24;}</style></defs><path class="cls-1" d="M203.8,70.93c-37.07,14.99-45.03-18.31-45.08-18.52h0c1.09-9.87,2.96-29.15,6.68-34.11,4.27-5.69,1.63-18.7,10.97-18.29,9.35.41,4.67,14.63,7.93,18.49s20,3.94,25.14,12.53c0,0,16.31-8.67,17.94-7.25,1.63,1.42-18.09,43.89-23.57,47.15Z"/><path class="cls-3" d="M207.94,82h-57.74c2.82-7.72,7.38-20.76,8.08-25.9.13-.98.28-2.23.44-3.69.05.21,8.01,33.51,45.08,18.52,0,0,2,6.09,4.14,11.07Z"/><circle class="cls-5" cx="185.71" cy="35.57" r="4.47"/><circle class="cls-5" cx="207.86" cy="43.9" r="3.86"/><circle class="cls-3" cx="198.01" cy="49.08" r="3.35"/><path class="cls-3" d="M194.85,50.2s1.03,5.16-.19,5.22-10.26-1.89-11.33,0,6.8-.73,9.47,1.7,3.48,5.51,5.21,5.7-2.89-3.05-2.21-6.31,2.21-4.07,2.21-4.07l-3.16-2.24Z"/><path class="cls-3" d="M145.14,39.02c-5.9,10.57-11.18,1.87-16.78,14.61-4.4,10.02,3.78,23.2,7.47,28.37h-56.16c1.46-5.62,4.38-13.13,4.38-13.13-3.3-9.61-2.92-11.2,4.23-24.57,7.14-13.36,13.05-10.56,15.53-11.81.95-.47,3.6-.09,6.51.56,4.77,1.07,10.27,2.86,10.27,2.86,0,0,4.88-4.93,10.89-9.95h.01c6.88-5.74,15.25-11.57,19.56-10.25,8.08,2.49,0,12.74-5.91,23.31Z"/><path class="cls-1" d="M131.49,25.96h0c-6.02,5.02-10.89,9.96-10.89,9.96,0,0-5.5-1.79-10.27-2.86,0,0,7.16-14.85,14.93-18.89,7.77-4.04,6.23,11.8,6.23,11.8Z"/><path class="cls-5" d="M90.76,54.25s-5.28,1.24-5.28,4.66,0,7.46,7.77,8.39c0,0-6.38-3.73-6.14-6.53s3.65-6.53,3.65-6.53Z"/><circle class="cls-6" cx="112.51" cy="48.03" r="3.73"/><ellipse class="cls-5" cx="90.76" cy="54.25" rx="3.11" ry="2.18"/><path class="cls-1" d="M75.23,82H13.09c-.88-7.04-2.17-14.08-4.01-17.99-4.6-9.78,4.6-40.85,10.36-40.85,0,0,1.72,6.9,6.9,8.63,5.18,1.72,5.18-18.41,5.18-18.41,0,0,9.78-7.48,22.44-1.16,0,0,1.15,3.46,7.48,5.76,0,0,9.78,8.63,3.45,13.81,0,0,13.81,21.29,9.78,32.22-1.64,4.44-.9,11.35.56,17.99Z"/><path class="cls-3" d="M44.42,37.21s-12.9-11.17-16.35,2.63c-3.45,13.81,21.29,19.56,25.89,23.59s12.08-5.18,11.51-10.36-1.15-9.78-6.33-13.23c0,0,4.6-4.03,2.3-5.75s-7.48,1.73-11.51,2.3-5.51.82-5.51.82Z"/><path class="cls-6" d="M37.27,36.97s-7.48,1.15-5.18,4.03,6.81,2.88,7.72,0-2.54-4.03-2.54-4.03Z"/><path class="cls-6" d="M61.56,36.97s-2.43-2.3-2.43,2.88l2.43-2.88Z"/><path class="cls-5" d="M60.35,45.93s4.54-2.22,2.81,2.75,2.23,6.12,2.23,6.12c0,0-4.46,26.47-17.73,0,0,0,8.31,4.13,10.47,1.2s-8.05-4.81-6.69-7.32,6.09-5.87,8.9-2.75Z"/><path class="cls-2" d="M31.52,13.38s0,20.14-5.18,18.41-6.9-8.63-6.9-8.63c0,0,1.07-22.69,8.3-21.41,0,0,2.63,2.43,3.78,11.63Z"/><path class="cls-2" d="M61.44,17.98c-6.33-2.3-7.48-5.75-7.48-5.75,2.88,1.15,7.61-10.53,7.61-10.53,6.45,8.45-.13,16.29-.13,16.29Z"/><path class="cls-4" d="M220,82c-73.02,2.05-146.98,2.06-220,0,73.02-2.06,146.98-2.05,220,0h0Z"/><path class="cls-4" d="M26.8,105.88l.32.32c.38.61.99,1.15,1.54,1.79.96,1.22,1.89,1.5,2.69,2.37l.8.86c.22.22.61.61.86.8l1.76,1.57c.22.19.7.35,1.02.35h.13c1.12,0,2.05.42,3.23.42.83,0,1.47-.67,2.21-.67.26-.06,3.42-.9,3.42-4.25,0-.7-.54-1.31-.99-1.76l-.8-.8c-.26-.22-.7-.48-.99-.54-.77-.22-1.44-.74-2.18-.83-.8-.1-1.47-.58-2.24-.67l-1.15-.16c-.32-.06-.86-.13-1.18-.13-1.57,0-2.14-.77-3.33-1.02-1.82-.51-3.62-2.05-3.84-4.03l-.13-1.15c-.03-.32-.06-.86-.06-1.18v-.16c0-.74,0-1.44.38-2.11l.61-1.02c.35-.61,1.02-1.15,1.7-1.54.83-.48,2.27-1.63,4.19-1.63h.13c.35,0,.86-.03,1.18-.13l1.15-.26c.32-.1.83-.16,1.18-.19.32,0,.83.06,1.15.19.83.26,1.82.26,2.66.26h.38c.7,0,1.79,0,2.46-.45l.9-.61c.06-.03.13-.06.19-.06.48,0,.58.96.61,1.57.03.8.58,1.54.67,2.3l.16,1.22c.16,1.34,1.12,2.98,1.15,3.78,0,.06-.03.06-.06.06-.42,0-1.66-1.31-2.02-1.79-.48-.61-1.15-1.02-1.7-1.66l-1.76-1.6c-.48-.45-1.09-.83-1.76-.83-.42,0-.77.13-1.25.13-.26,0-.93-.06-1.38-.06-.51,0-1.09.1-1.54.1-.29,0-.61-.06-.8-.06-.32,0-.7.1-.93.26-1.22.67-2.88,1.02-3.1,2.94l-.13,1.15c0,1.25,1.09,2.14,2.14,2.37,1.09.22,1.86.96,3.23.96.7,0,1.38.22,2.08.48.03,0,.06.03.1.03.99.38,2.14.61,3.33.7,1.22.13,1.89,1.28,2.75,1.92.42.32,1.63,2.02,1.63,2.94,0,.13-.03.26-.03.42,0,.93.32,1.76.32,2.46,0,1.02-.51,2.14-1.02,2.94-1.12,1.73-1.6,2.78-3.3,3.3-.83.13-1.34.9-2.18.9s-1.5.45-2.33.45c-.77,0-1.41-.29-2.18-.29h-.32c-.83,0-1.44-.42-2.18-.48-.86-.06-1.34-.77-2.21-.86-.32,0-.86.03-1.18.13-.9.19-1.79,1.44-2.24,1.44-.32,0-.22-1.02-.38-1.54l-.32-1.09c-.38-1.95-.26-3.07-.51-4.51l-.19-1.12c-.13-.74-.42-1.47-.54-2.21.03-.16.03-.29,0-.38Z"/><path class="cls-4" d="M67.06,113.88c0-.32-.74-2.11-1.5-2.59-.64-.38-.9-1.25-1.63-1.63-.99-.48-1.92-1.28-2.82-2.08-.38-.32-1.98-1.25-2.14-1.25-.22,0-.29.29-.29.67,0,.58.13.96.13,1.5,0,.61-.16,1.28-.22,1.95,0,2.34.67,2.02,1.6,3.07.54.61,1.92,1.47,1.92,1.82,0,.06-.03.13-.16.13-.1,0-.22-.03-.38-.03-.51,0-.86.1-1.41.1-.48,0-.74-.13-1.22-.13-.51,0-.83.16-1.38.16-1.02,0-1.89-.22-2.85-.32-.61,0-1.25.19-1.89.19-.51,0-.9-.16-1.47-.16h-.26c-.22,0-.38-.03-.38-.19,0-.26.9-1.63,1.31-2.27l.1-.16c.38-.58.99-1.18.99-1.86,0-.26-.13-.54-.13-.93,0-.58.22-1.18.22-1.73,0-.93-.35-1.95-.35-2.62,0-.58.16-.93.16-1.44,0-1.06-.38-2.3-.38-3.23,0-.67.22-1.12.22-1.76,0-.45-.16-1.12-.19-1.6-.1-1.02.16-2.59-.7-3.36-.42-.48-1.92-1.89-1.92-2.21,0-.19,1.92-.29,2.59-.29.48,0,1.12.03,1.47.03.54,0,.9-.1,1.41-.1.35,0,.58.06.86.06,1.22,0,2.53-.32,3.78-.32.51,0,.99,0,.99.32,0,.45-1.31,1.6-1.6,2.34-.29.7-1.12,1.12-1.12,1.82,0,.22.1.48.1.77,0,.38-.1.61-.1.99,0,.42.16.61.16,1.02,0,.58-.26,1.12-.26,1.7,0,.51,0,1.41.29,1.41.06,0,.19-.06.29-.16,1.31-1.02,2.88-2.3,4.38-3.81.42-.42,2.11-2.37,2.11-4.22,0-.64-.8-1.31-.8-1.63,0-.1.1-.16.26-.16,1.41,0,2.78.16,3.94.16.67,0,1.25-.22,1.89-.22.45,0,2.82.16,2.82.35,0-.03-1.5,1.38-2.21,1.66-.74.32-1.06,1.12-1.7,1.54-2.05,1.31-3.01,2.88-4.29,3.87-1.06.8-1.76,2.3-1.76,3.58,0,1.02.38,1.79.93,2.53,1.38,1.57,2.69,3.04,4.06,4.22.83.74,1.63,1.76,2.66,2.24.77.35,1.22,1.02,1.76,1.57.22.22,2.98,1.57,2.98,2.18,0,.29-.58.35-1.09.35-.38,0-.8-.1-1.34-.1-.35,0-.86.06-1.22.06-.83,0-1.5-.06-2.27-.06-.1,0-.19.03-.29.03-.64,0-1.02-.16-1.7-.16-.29,0-1.12.19-1.6.19-.1,0-.16-.06-.16-.16,0-.06.03-.16.13-.26.35-.38.67-1.02.67-1.41Z"/><path class="cls-4" d="M72.4,90.55c0-.13.1-.19.26-.19.1,0,.19.03.32.03.48,0,.83-.16,1.31-.16.61,0,1.18.26,1.82.26.45,0,1.12-.22,1.44-.16.77,0,1.31.26,1.98.26.74,0,1.34-.29,2.11-.29.32,0,1.6.03,1.6.32,0,.74-2.24,1.22-2.24,2.53,0,1.02,1.22,3.1,1.63,3.39,1.02.7,1.09,2.11,2.14,2.75,1.02.64,2.24,2.69,2.56,2.66.86,0,2.37-2.91,2.46-3.04.67-.99,1.92-1.73,2.4-2.75.35-.74,1.6-2.11,1.6-2.46,0-.45-1.18-1.54-1.54-1.92-.29-.26-.83-.86-.83-1.06,0-.1.1-.16.26-.16.35,0,.96.1,1.31.1,1.15,0,2.21-.29,3.3-.38.64,0,1.18.22,1.82.22,1.02,0,2.5-.22,3.78-.22.1,0,.16.03.16.06,0,.1-.83.67-1.12,1.06-.77,1.44-2.59,1.47-3.46,3.01-.54.99-1.89,1.38-2.37,2.46-.48,1.09-1.54,1.86-2.02,2.91-.58,1.02-1.28,1.95-2.08,2.91-.51.64-.61,1.5-1.28,2.02-.64.48-.83,1.22-.83,2.02.16,1.76.7,3.2.7,5.98.06.83,1.09.9,1.63,1.5.48.58,1.98,1.15,1.98,1.38,0,.03-.03.03-.13.03h-.26c-.64,0-1.31.22-2.02.22-1.12-.13-2.24-.1-3.42-.1-.77,0-1.47.26-2.27.26-.58,0-1.15-.16-1.7-.16s-.9.13-1.44.13c-.38,0-1.73-.03-1.73-.19,0-.06,1.5-1.41,1.89-1.5.74-.16.99-.93,1.73-1.28.22-.1.38-.35.38-.61s-.16-.77-.16-1.15v-.16c0-1.02-.32-1.92-.32-3.01,0-.26.06-.42.06-.74,0-.61-.16-1.09-.16-1.73,0-1.12-1.06-2.24-1.79-2.85-.93-.74-1.25-2.05-2.14-2.82-.93-.77-1.38-1.89-2.3-2.69-.86-.83-1.12-1.92-2.11-2.85l-.29-.29c-.48-.45-.93-.86-1.18-1.54-.32-.77-1.09-1.09-1.41-1.82-.03-.06-.06-.13-.06-.19Z"/><path class="cls-4" d="M134.51,107.77s.06,0,.06.06c0,.16-.38.86-.61,1.12-.86,1.12-.96,2.11-1.76,2.98-.51.54-.86,1.22-1.18,1.95-.67,1.5-1.5,1.63-3.42,1.63-.77,0-1.41-.35-2.14-.35-.67,0-1.31.19-1.98.19h-.83c-.38,0-.74,0-1.09.03-1.82,0-4.1-.51-6.08-.51-.74,0-1.54.13-2.18.13-.54,0-.96-.16-1.34-.16-.54,0-.86.16-1.38.16-.58,0-1.38-.29-1.89-.29-.74,0-1.25.26-1.95.26-.77,0-1.41-.29-2.24-.29-.16,0-.29.03-.42.03-.06,0-.1-.03-.1-.06,0,0,1.41-1.44,1.89-1.89.54-.51,1.98-1.73,1.98-2.62,0-.54-.16-1.28-.16-1.82,0-.48.1-.74.1-1.18,0-.64-.22-1.54-.22-2.08,0-.67.16-1.12.16-1.76,0-.58-.26-1.44-.26-2.11s.16-1.25.16-1.89c-.13-1.18-.38-2.4-.38-3.58.03-.32.06-.86.06-1.18.03-.86-.93-1.15-1.41-1.86-.58-.83-2.56-1.5-2.56-1.89l.1-.32h.32c.77,0,1.82.22,2.62.22.58,0,1.18-.1,1.76-.1.19,0,.42.03.58.03,1.31,0,2.37-.22,3.55-.22,1.57,0,4.77.22,7.29.22.29,0,.96-.1,1.22-.1,0,.13-.74.51-1.09.64-1.06.32-1.86,1.12-2.91,1.44-.45.13-2.56.77-2.56,1.57,0,.16.03.38.03.58,0,.61-.16,1.54-.16,2.02s.1.83.1,1.12c0,.64-.29,1.02-.29,1.66,0,.38.13.77.13,1.25v.26c0,.32,0,.83.03,1.15,0,.83-.42,1.79-.42,2.5,0,.54.1.96.1,1.41,0,.51-.13.8-.13,1.28,0,.54.22,1.18.22,1.76,0,.32-.03.83-.06,1.12,0,.32.13.58.45.58.61,0,1.18.29,1.95.29.19,0,.35-.03.58-.03.54,0,.8.13,1.34.13.45,0,1.02-.1,1.6-.1,1.06.13,2.43.16,3.49.16.29,0,.7-.03.93-.1,1.28-.42,2.37-.03,3.52-.64,1.41-.77,3.1-.93,4.54-1.7.7-.35,1.6-.45,2.14-.99.1-.06.16-.1.19-.1ZM122.22,90.14s.03-.06.1-.06c.1,0,.26.06.45.06.51,0,.93-.13,1.57-.13s1.41.1,2.11.1c.58,0,1.57-.03,2.11-.03.67,0,1.06.1,1.76.1.38,0,1.47-.13,1.86-.13.42,0,.7.03.7.16,0-.16-2.18,2.02-2.18,3.46,0,.29.16.64.16,1.02v.22c0,.51.13,1.06.13,1.57,0,.45-.1.96-.1,1.44,0,.58.19,1.06.19,1.63,0,.29-.06.42-.06.67,0,.58.1.9.1,1.44,0,.29-.03.58-.03.96,0,1.18.06,2.27,1.12,2.75.29.22,1.44,1.34,1.44,1.34,0,.19-.42.22-.86.22-.93,0-2.11-.22-2.88-.22-1.06,0-2.4.29-3.42.29-.54,0-.93-.13-1.44-.13-.54,0-.99.19-1.47.19-.22,0-.35-.06-.35-.13s.03-.13.1-.19c.77-.8,2.4-1.89,2.4-3.26,0-.26-.03-.8-.03-1.12.03-.29.03-.77.03-1.06,0-.06-.03-.16-.03-.26,0-.48.13-.77.13-1.25,0-.54-.16-1.02-.16-1.54,0-.7.19-1.34.19-2.05-.03-.29-.06-.77-.13-1.06-.1-.83.19-2.18-.67-2.91-.45-.38-2.82-1.5-2.82-2.11Z"/><path class="cls-4" d="M163.98,93.05c-1.86,1.6-2.56,2.78-2.56,4.45,0,.38.06.58.06.96,0,1.47-.54,2.69-.54,4.13v.32c0,1.44-.45,2.94-.45,4.42,0,1.09,2.3,1.5,3.33,1.5,1.54,0,2.24-1.31,2.85-1.31.35,0,.64.26.64.64.03.77-1.31,1.76-1.73,2.53-.42.74-1.06,1.31-1.63,1.92-.58.61-1.28.83-1.89,1.34-.48.42-1.38.42-2.02.42h-.32c-.32,0-.7-.06-.96-.16-.13-.06-.22-.1-.35-.13-1.86-.74-2.69-1.06-3.49-2.14-.86-.86-1.98-1.18-2.78-1.98-1.06-1.25-2.18-2.37-3.36-3.04-.64-.35-1.09-1.06-1.73-1.47-.61-.48-.99-1.18-1.66-1.54-.77-.38-1.31-1.57-1.86-1.57-.42,0-.51.61-.51,1.12,0,.16.03.29.03.45,0,.96-.38,1.66-.38,2.53,0,.22,0,.42.03.58,0,1.02-.32,1.86-.32,2.72,0,.45.1.67.1,1.12,0,.29-.06.54-.06.74,0,1.02,1.41,1.38,1.92,2.21.38.64,1.66,1.34,1.66,1.66,0,.26-1.79.32-2.43.32-.83-.06-1.86-.32-2.46-.32-.74,0-1.38.35-2.11.35s-1.54-.29-2.27-.29c-.13,0-.22-.06-.22-.13,0-.13.51-.67.77-1.02.77-1.06,1.79-1.38,1.79-2.69,0-2.11.77-3.46.77-4.83v-1.95c0-1.54.58-3.17.58-4.51,0-.77-.8-1.09-1.34-1.57-.64-.58-.99-1.28-1.7-1.7-.58-.32-2.05-1.22-2.05-1.73,0-.35.83-.67,1.22-1.02,1.02-.93,2.69-1.41,3.97-2.4.54-.42,1.98-1.86,3.3-1.86.74,0,1.7,1.7,2.46,2.78.74,1.02,1.47,1.79,2.05,2.72.93,1.6,2.14,2.37,3.1,3.3.96.7,1.34,1.89,2.24,2.56.64.48.9,1.18,1.54,1.66.45.35,1.89,2.4,2.56,2.4.26,0,.54-2.4.54-3.39v-.29c0-1.25.48-2.21.48-3.33v-.13c0-1.09.35-2.53.35-3.68,0-.77-.61-1.15-1.12-1.47-.19-.13-2.5-1.98-2.5-2.4,0-.19.29-.22.67-.22.54,0,1.09.13,1.73.13h.16c.58,0,.96.16,1.47.16.45,0,.67-.1,1.09-.1.54,0,1.12.16,1.66.16.38-.03,1.06-.1,1.28-.1.64,0,1.02.19,1.76.19.16,0,.35-.03.45-.03s.13,0,.13.03c0,.06-.06.13-.19.22-.77.54-1.12,1.22-1.73,1.76Z"/><path class="cls-4" d="M169.42,90.94c.67,0,1.12-.13,1.82-.13.45,0,1.38.13,1.79.13.61,0,.96-.16,1.57-.16.48,0,1.09.1,1.63.16.99,0,1.98-.19,2.78-.19.67,0,1.25.16,1.92.16.77,0,1.54.03,2.34-.1.77-.1,1.54-.1,2.24-.26.9-.19,2.05-1.12,3.1-1.12.48,0,.77.64.77,1.25v.13c0,1.02.61,1.89.61,3.01v.51c0,.96.64,2.21.64,3.33,0,.1-.03.16-.1.16-.29,0-1.54-1.12-1.98-1.57-.96-.93-1.95-2.66-3.42-2.82-1.6,0-3.52.06-4.96.06-.9,0-1.82-.32-2.56-.32-1.54,0-1.34.96-1.44,2.05,0,.96-.42,2.08-.42,2.82,0,1.5,1.66,1.82,2.82,1.82,1.5,0,1.86-.8,2.85-1.28.83-.38,1.47-2.14,1.54-2.14s.26.83.58,1.25c.45.64.29,1.5.74,2.14.61.9.96,2.05,1.31,3.17.19.96,1.09,2.43,1.09,3.55,0,.1-.06.16-.13.16-.19,0-.77-.61-1.02-.93-.48-.61-1.22-.74-1.79-1.22-.48-.58-1.41-1.95-2.4-1.95-1.12,0-2.18.13-3.33.13-.32,0-.54-.06-.9-.06-1.06,0-1.31.29-1.31,1.25,0,.38.06.64.06,1.02,0,.74-.29,1.54-.29,2.21,0,.58.13.9.13,1.41,0,.45-.16,1.12-.16,1.66,0,.64-.32,1.22-.32,1.92,0,.96.64,1.41,1.41,1.41.32,0,.77-.1,1.22-.1.38,0,1.28.16,1.7.16.29,0,.64-.03.9-.13,1.09-.32,2.34-.58,3.49-.58,2.05,0,3.26-2.3,4.93-3.01,1.06-.45,1.79-1.44,2.43-2.34l.06-.1c.16-.22,1.86-2.14,1.86-1.82,0,.03-.03.1-.1.19-.61,1.06-.67,2.24-.9,3.3-.1.8-.8,1.34-.9,2.14-.1.74-.74,1.44-.74,2.18-.03.35-.45,3.52-1.47,3.52-.06,0-.16,0-.22-.03-1.12-.45-1.98-1.54-3.3-1.54-.64,0-1.31.26-1.89.26-.45,0-.7-.1-1.18-.1s-.74.13-1.22.13c-.35,0-.58-.1-.9-.1-.9,0-1.7.29-2.53.29-.58,0-1.18-.06-1.76-.06-1.34,0-2.78.26-3.97.26-.58,0-.96-.13-1.57-.13-.86,0-1.76.1-2.62.19-.19,0-.29-.03-.29-.1,0,.1,1.18-1.31,1.7-1.82,1.34-1.34,1.09-1.44,1.25-2.72,0-.58.22-1.15.22-1.7s-.22-1.15-.22-1.73c.03-.45.19-1.12.19-1.5,0-.61-.19-.99-.19-1.6,0-.32.1-.58.1-.96,0-.32-.06-.48-.06-.77,0-.7.26-1.12.26-1.79,0-.93-.22-2.02-.22-2.94,0-1.06.19-1.89.19-2.94,0-1.5-.29-2.11-1.25-2.85-.32-.16-1.82-1.73-1.82-1.79s.13-.06.26-.06c.38.03,1.09.06,1.38.06Z"/><path class="cls-4" d="M48.86,123.8h2.76c1.39,0,2.55.21,3.5.63.95.42,1.65.99,2.12,1.71.47.72.7,1.54.7,2.46,0,1.03-.27,1.93-.8,2.71-.53.78-1.27,1.38-2.2,1.79-.93.41-1.99.62-3.16.62h-1.4v-.52c.39.04.82.06,1.3.06,1.44,0,2.52-.39,3.25-1.17s1.08-1.84,1.07-3.19c0-.97-.22-1.82-.66-2.53-.44-.71-1.03-1.26-1.76-1.63-.73-.37-1.53-.56-2.4-.56-.28,0-.56.01-.84.04l.28-.22v13.8h-1.76v-14Z"/><path class="cls-4" d="M59.9,123.8h8l.52,1.54c.07.2.06.37,0,.51-.07.14-.19.22-.35.24-.16.02-.31-.03-.46-.15-.87-.6-1.77-1.05-2.72-1.34-.95-.29-1.85-.44-2.72-.44-.27.01-.55.03-.86.04l.36-.26v13.68l-.24-.24c.31.03.72.04,1.24.04.75,0,1.57-.14,2.47-.42s1.87-.73,2.91-1.36c.19-.12.36-.16.53-.12.17.04.28.14.34.29.06.15.05.32-.03.51l-.68,1.48h-8.3v-14ZM61.24,132.78l3.32-3.26h1.52c.21,0,.37.07.47.2.1.13.12.27.06.42-.06.15-.19.25-.39.32-1.12.36-2.06.74-2.81,1.15-.75.41-1.48.93-2.19,1.57l.02-.4Z"/><path class="cls-4" d="M74.58,123.96l.36.24c-.16-.01-.33-.03-.5-.04-.55,0-1.2.15-1.95.45-.75.3-1.5.74-2.25,1.31-.13.11-.27.15-.42.13s-.26-.1-.33-.24c-.07-.14-.08-.3-.03-.49l.5-1.52h10.98l.5,1.52c.07.19.06.35,0,.49-.07.14-.18.22-.33.24-.15.02-.29-.02-.42-.13-.76-.57-1.52-1.01-2.27-1.31-.75-.3-1.4-.45-1.93-.45-.17,0-.33.01-.46.04l.34-.24v13.84h-1.78v-13.84Z"/><path class="cls-4" d="M87.34,123.96l.36.24c-.16-.01-.33-.03-.5-.04-.55,0-1.2.15-1.95.45-.75.3-1.5.74-2.25,1.31-.13.11-.27.15-.42.13s-.26-.1-.33-.24c-.07-.14-.08-.3-.03-.49l.5-1.52h10.98l.5,1.52c.07.19.06.35,0,.49-.07.14-.18.22-.33.24-.15.02-.29-.02-.42-.13-.76-.57-1.52-1.01-2.27-1.31-.75-.3-1.4-.45-1.93-.45-.17,0-.33.01-.46.04l.34-.24v13.84h-1.78v-13.84Z"/><path class="cls-4" d="M95.96,123.8h1.76v14h-1.76v-14Z"/><path class="cls-4" d="M101.56,126.34l-.08-.06-2.2-2.48h2.34l10.94,13.26-.2.24c-.27-4.88-.74-9.11-1.42-12.68-.05-.24-.02-.44.11-.6.13-.16.32-.24.57-.24l1.48.02-.48,14h-1.64l-9.42-11.46ZM101.38,125.72h.18c.17,2.09.36,4.06.57,5.91.21,1.85.46,3.62.77,5.33.04.25,0,.46-.13.61-.13.15-.32.23-.57.23h-1.46l.64-12.08Z"/><path class="cls-4" d="M118.03,137.15c-.98-.59-1.74-1.41-2.28-2.45s-.81-2.21-.81-3.52c.03-1.35.34-2.6.95-3.76.61-1.16,1.48-2.09,2.63-2.79,1.15-.7,2.51-1.05,4.1-1.05.76,0,1.52.09,2.27.26.75.17,1.4.41,1.93.7l.26,1.6c.03.16,0,.29-.08.4s-.19.16-.32.17c-.13,0-.27-.04-.4-.15-.83-.65-1.71-1.17-2.66-1.54-.95-.37-1.83-.56-2.66-.56-.88,0-1.68.2-2.4.61-.72.41-1.29.99-1.71,1.74-.42.75-.63,1.64-.63,2.65,0,1.23.28,2.42.83,3.59.55,1.17,1.32,2.12,2.3,2.86.98.74,2.08,1.11,3.29,1.11.81,0,1.58-.22,2.29-.65.71-.43,1.31-1.07,1.79-1.91l.1.46c-.69,1.03-1.5,1.8-2.43,2.33s-1.93.79-3.01.79c-1.25,0-2.37-.3-3.35-.89ZM126.42,135.24l-.06-.14-.94-4.32.4.2h-5.7v-.44h7.02l1.58,7.26h-1.74l-.56-2.56Z"/><path class="cls-4" d="M141.58,123.96l.26.28c-.19-.01-.41-.03-.67-.05-.26-.02-.51-.03-.75-.03-1.99,0-3.87.61-5.66,1.82-.15.12-.3.17-.46.15-.16-.02-.28-.1-.36-.25s-.09-.33-.02-.54l.54-1.54h9.14l-8.12,13.82-.24-.3c.19.03.42.05.7.07.28.02.57.03.86.03,1.15,0,2.17-.14,3.06-.42.89-.28,1.84-.74,2.84-1.38.16-.12.32-.17.49-.15.17.02.29.11.36.26.07.15.07.34,0,.55l-.6,1.52h-9.54l8.18-13.84Z"/><path class="cls-4" d="M147.33,137.14c-.98-.59-1.74-1.4-2.29-2.43s-.82-2.2-.82-3.49c0-1.4.31-2.69.93-3.86.62-1.17,1.47-2.1,2.55-2.78,1.08-.68,2.28-1.02,3.6-1.02,1.19,0,2.26.29,3.23.88.97.59,1.72,1.41,2.26,2.47.54,1.06.81,2.26.81,3.61,0,1.43-.3,2.71-.89,3.85-.59,1.14-1.42,2.03-2.47,2.68-1.05.65-2.23.97-3.54.97s-2.39-.29-3.37-.88ZM154.25,136.56c.67-.44,1.2-1.04,1.57-1.81.37-.77.56-1.64.56-2.63,0-1.32-.31-2.57-.93-3.74-.62-1.17-1.43-2.11-2.43-2.81-1-.7-2.05-1.05-3.14-1.05-.85,0-1.61.22-2.28.65-.67.43-1.18,1.02-1.55,1.77-.37.75-.55,1.58-.55,2.5,0,1.24.3,2.46.89,3.67.59,1.21,1.39,2.19,2.38,2.96.99.77,2.06,1.15,3.19,1.15.85,0,1.62-.22,2.29-.66Z"/><path class="cls-4" d="M161.85,137.14c-.98-.59-1.74-1.4-2.29-2.43s-.82-2.2-.82-3.49c0-1.4.31-2.69.93-3.86.62-1.17,1.47-2.1,2.55-2.78,1.08-.68,2.28-1.02,3.6-1.02,1.19,0,2.26.29,3.23.88.97.59,1.72,1.41,2.26,2.47.54,1.06.81,2.26.81,3.61,0,1.43-.3,2.71-.89,3.85-.59,1.14-1.42,2.03-2.47,2.68-1.05.65-2.23.97-3.54.97s-2.39-.29-3.37-.88ZM168.77,136.56c.67-.44,1.2-1.04,1.57-1.81.37-.77.56-1.64.56-2.63,0-1.32-.31-2.57-.93-3.74-.62-1.17-1.43-2.11-2.43-2.81-1-.7-2.05-1.05-3.14-1.05-.85,0-1.61.22-2.28.65-.67.43-1.18,1.02-1.55,1.77-.37.75-.55,1.58-.55,2.5,0,1.24.3,2.46.89,3.67.59,1.21,1.39,2.19,2.38,2.96.99.77,2.06,1.15,3.19,1.15.85,0,1.62-.22,2.29-.66Z"/></svg>